<?xml version="1.0" encoding="iso-8859-1"?>
<!-- Generator: Adobe Illustrator 19.0.0, SVG Export Plug-In . SVG Version: 6.00 Build 0)  -->
<svg version="1.1" id="Layer_1" xmlns="http://www.w3.org/2000/svg" xmlns:xlink="http://www.w3.org/1999/xlink" x="0px" y="0px"
	 viewBox="0 0 511.999 511.999" style="enable-background:new 0 0 511.999 511.999;" xml:space="preserve">
<g>
	<g>
		<path d="M364.689,377.874l-90.796-260.556l53.582-92.807C333.76,13.626,325.879,0,313.324,0H198.676
			c-12.569,0-20.429,13.638-14.151,24.511l53.582,92.807l-90.796,260.556c-1.884,5.407-0.801,11.405,2.855,15.81
			c2.475,2.983,90.523,109.117,93.258,112.412c6.525,7.867,18.618,7.876,25.151,0l93.258-112.412
			C365.49,389.277,366.571,383.279,364.689,377.874z M226.979,32.681h58.043l-29.022,50.267L226.979,32.681z M181.207,379.918
			l74.793-214.631l41.955,120.399l-97.46,117.48L181.207,379.918z M255.999,470.072l-34.273-41.312l88.789-107.027l20.276,58.185
			L255.999,470.072z"/>
	</g>
</g>
<g>
</g>
<g>
</g>
<g>
</g>
<g>
</g>
<g>
</g>
<g>
</g>
<g>
</g>
<g>
</g>
<g>
</g>
<g>
</g>
<g>
</g>
<g>
</g>
<g>
</g>
<g>
</g>
<g>
</g>
</svg>
