<?xml version="1.0" encoding="iso-8859-1"?>
<!-- Generator: Adobe Illustrator 19.0.0, SVG Export Plug-In . SVG Version: 6.00 Build 0)  -->
<svg version="1.1" id="Layer_1" xmlns="http://www.w3.org/2000/svg" xmlns:xlink="http://www.w3.org/1999/xlink" x="0px" y="0px"
	 viewBox="0 0 512 512" style="enable-background:new 0 0 512 512;" xml:space="preserve">
<g>
	<g>
		<path d="M156.713,347.497h-4.678c-5.771,0-10.449,4.678-10.449,10.449c0,5.771,4.678,10.449,10.449,10.449h4.678
			c5.771,0,10.449-4.678,10.449-10.449C167.162,352.175,162.484,347.497,156.713,347.497z"/>
	</g>
</g>
<g>
	<g>
		<path d="M182.127,190.211c-4.081-4.08-10.697-4.078-14.777,0.003l-3.497,3.498c-4.079,4.081-4.079,10.697,0.002,14.777
			c2.042,2.04,4.715,3.058,7.388,3.058c2.675,0,5.35-1.021,7.39-3.062l3.497-3.498C186.21,200.907,186.21,194.292,182.127,190.211z"
			/>
	</g>
</g>
<g>
	<g>
		<path d="M210.906,218.854c-4.081-4.079-10.697-4.079-14.777,0.003l-3.498,3.498c-4.079,4.081-4.079,10.697,0.002,14.777
			c2.042,2.041,4.715,3.059,7.388,3.059s5.35-1.021,7.389-3.062l3.498-3.499C214.988,229.549,214.988,222.934,210.906,218.854z"/>
	</g>
</g>
<g>
	<g>
		<path d="M244.879,246.872c-4.08-4.08-10.697-4.08-14.778,0l-3.497,3.497c-4.08,4.08-4.08,10.697,0,14.778
			c2.042,2.041,4.716,3.06,7.39,3.06s5.349-1.02,7.388-3.06l3.497-3.497C248.959,257.569,248.959,250.953,244.879,246.872z"/>
	</g>
</g>
<g>
	<g>
		<path d="M493.854,298.615c-15.463-19.121-39.238-32.976-68.755-40.068c-15.591-3.746-30.042-7.915-43.477-12.409
			c-0.202-0.072-0.404-0.143-0.609-0.203c-59.01-19.824-98.13-45.981-125.806-70.778c-0.096-0.104-0.184-0.214-0.284-0.315
			c-0.357-0.357-0.74-0.672-1.133-0.966c-18.481-16.763-31.791-32.84-42.544-45.835c-1.766-2.134-3.456-4.176-5.08-6.115
			c-1.791-2.138-4.362-3.47-7.142-3.701c-2.78-0.231-5.536,0.658-7.656,2.471c-24.516,20.959-55.799,32.5-88.087,32.5
			c-31.391,0-62-10.972-86.187-30.896c-3.121-2.572-7.447-3.11-11.102-1.385C2.333,122.639,0,126.32,0,130.364v202.165v50.833
			c0,5.771,4.678,10.449,10.449,10.449h185.66c5.771,0,10.449-4.678,10.449-10.449V350.55
			c27.852,15.058,87.377,43.261,142.513,43.261h120.097c22.527,0,39.572-16.141,42.419-40.162
			C513.76,335.296,507.297,315.237,493.854,298.615z M185.66,372.913H20.898v-4.518h97.333c5.771,0,10.449-4.678,10.449-10.449
			c0-5.771-4.678-10.449-10.449-10.449H20.898v-4.519H185.66V372.913z M20.898,322.08v-96.849
			c51.122,4.937,91.91,45.727,96.848,96.849H20.898z M201.638,323.664c-1.638-1.023-3.599-1.583-5.53-1.583h-57.389
			c-5.057-62.649-55.174-112.765-117.821-117.822v-53.594c24.61,15.213,53.204,23.429,82.382,23.429
			c33.715,0,66.484-10.908,93.377-30.903c2.53,3.054,5.213,6.28,8.075,9.642l-12.099,12.098c-4.08,4.08-4.081,10.697-0.001,14.777
			c2.041,2.041,4.715,3.06,7.388,3.06s5.349-1.021,7.388-3.06l11.227-11.226c4.246,4.551,8.84,9.247,13.829,14.038l-11.055,11.055
			c-4.08,4.08-4.08,10.697,0,14.778c2.041,2.041,4.715,3.06,7.388,3.06c2.674,0,5.349-1.02,7.388-3.06l11.817-11.817
			c5.603,4.744,11.629,9.528,18.13,14.305l-10.752,10.753c-4.08,4.08-4.08,10.697,0,14.777c2.041,2.041,4.715,3.06,7.388,3.06
			s5.349-1.021,7.388-3.06l13.494-13.495c23.064,14.804,48.876,27.49,77.186,38.006c-23.831,32.046-38.649,69.265-43.351,108.937
			C259.085,359.086,202.305,324.08,201.638,323.664z M490.833,351.19c-0.604,5.096-3.95,21.723-21.665,21.723H349.07
			c-3.591,0-7.215-0.145-10.857-0.406c4.502-38.308,19.388-74.107,43.451-104.432c12.427,3.984,25.266,7.599,38.554,10.791
			c25,6.007,44.845,17.38,57.387,32.889C487.527,324.025,492.349,338.398,490.833,351.19z"/>
	</g>
</g>
<g>
</g>
<g>
</g>
<g>
</g>
<g>
</g>
<g>
</g>
<g>
</g>
<g>
</g>
<g>
</g>
<g>
</g>
<g>
</g>
<g>
</g>
<g>
</g>
<g>
</g>
<g>
</g>
<g>
</g>
</svg>
