<?xml version="1.0" encoding="iso-8859-1"?>
<!-- Generator: Adobe Illustrator 19.0.0, SVG Export Plug-In . SVG Version: 6.00 Build 0)  -->
<svg version="1.1" id="Layer_1" xmlns="http://www.w3.org/2000/svg" xmlns:xlink="http://www.w3.org/1999/xlink" x="0px" y="0px"
	 viewBox="0 0 501.333 501.333" style="enable-background:new 0 0 501.333 501.333;" xml:space="preserve">
<g>
	<g>
		<path d="M455.96,365.866c-9.6-25.6-28.8-45.867-54.4-57.6L261.827,246.4c-9.6-4.267-16-13.867-16-24.533V21.333
			C245.827,9.6,236.227,0,224.493,0H60.227C48.493,0,38.893,9.6,38.893,21.333v283.733c0,39.467,23.467,75.733,60.8,91.733
			l216.533,96c13.867,5.333,27.733,8.533,42.667,8.533c40.533,0,77.867-23.467,93.867-58.667
			C464.493,418.133,465.56,391.466,455.96,365.866z M125.293,360.533l-7.467-3.2c-22.4-9.6-36.267-29.867-36.267-52.267
			c24.533,3.2,43.733,23.467,43.733,49.067V360.533z M305.56,440.533l-137.6-60.8v-25.6c0-49.067-38.4-89.6-86.4-92.8V41.599
			h123.733v178.133c0,26.667,17.067,52.267,41.6,62.933l103.467,45.867C331.16,347.733,310.893,380.8,305.56,440.533z
			 M416.493,423.466c-10.667,21.333-32,35.2-56.533,35.2c-4.267,0-9.6-1.067-13.867-2.133c4.267-80,36.267-102.4,46.933-108.8
			c11.733,7.467,21.333,17.067,25.6,29.867C423.96,393.6,422.893,409.6,416.493,423.466z"/>
	</g>
</g>
<g>
</g>
<g>
</g>
<g>
</g>
<g>
</g>
<g>
</g>
<g>
</g>
<g>
</g>
<g>
</g>
<g>
</g>
<g>
</g>
<g>
</g>
<g>
</g>
<g>
</g>
<g>
</g>
<g>
</g>
</svg>
