<?xml version='1.0' encoding='iso-8859-1'?>
<!DOCTYPE svg PUBLIC '-//W3C//DTD SVG 1.1//EN' 'http://www.w3.org/Graphics/SVG/1.1/DTD/svg11.dtd'>
<svg version="1.1" xmlns="http://www.w3.org/2000/svg" viewBox="0 0 297 297" xmlns:xlink="http://www.w3.org/1999/xlink" enable-background="new 0 0 297 297">
  <g>
    <path d="m45.032,48.914h206.934c5.125,0 9.295-4.17 9.295-9.295v-4.697c0-5.125-4.17-9.296-9.295-9.296h-206.934c-5.125,0-9.294,4.17-9.294,9.296v4.697c0,5.125 4.169,9.295 9.294,9.295z"/>
    <path d="m216.678,66.073h-19.151v9.805c0,4.739-3.841,8.58-8.58,8.58-4.739,0-8.58-3.841-8.58-8.58v-9.805h-63.735v9.805c0,4.739-3.841,8.58-8.58,8.58s-8.58-3.841-8.58-8.58v-9.805h-19.15l-21.704,190.994c-0.419,3.689 0.712,7.245 3.184,10.014 2.472,2.769 5.877,4.294 9.589,4.294h28.083v-10.418c0-4.739 3.841-8.58 8.58-8.58s8.58,3.841 8.58,8.58v10.418h63.735v-10.418c0-4.739 3.841-8.58 8.58-8.58 4.739,0 8.58,3.841 8.58,8.58v10.418h28.083c3.712,0 7.117-1.525 9.589-4.294 2.472-2.768 3.603-6.325 3.184-10.014l-21.707-190.994zm-100.046,156.887c0,4.739-3.841,8.58-8.58,8.58s-8.58-3.841-8.58-8.58v-11.031c0-4.739 3.841-8.58 8.58-8.58s8.58,3.841 8.58,8.58v11.031zm0-49.027c0,4.739-3.841,8.58-8.58,8.58s-8.58-3.841-8.58-8.58v-11.031c0-4.739 3.841-8.58 8.58-8.58s8.58,3.841 8.58,8.58v11.031zm0-49.027c0,4.739-3.841,8.58-8.58,8.58s-8.58-3.841-8.58-8.58v-11.031c0-4.739 3.841-8.58 8.58-8.58s8.58,3.841 8.58,8.58v11.031zm80.895,98.054c0,4.739-3.841,8.58-8.58,8.58-4.739,0-8.58-3.841-8.58-8.58v-11.031c0-4.739 3.841-8.58 8.58-8.58 4.739,0 8.58,3.841 8.58,8.58v11.031zm0-49.027c0,4.739-3.841,8.58-8.58,8.58-4.739,0-8.58-3.841-8.58-8.58v-11.031c0-4.739 3.841-8.58 8.58-8.58 4.739,0 8.58,3.841 8.58,8.58v11.031zm0-49.027c0,4.739-3.841,8.58-8.58,8.58-4.739,0-8.58-3.841-8.58-8.58v-11.031c0-4.739 3.841-8.58 8.58-8.58 4.739,0 8.58,3.841 8.58,8.58v11.031z"/>
    <path d="m296.748,235.774l-31.914-159.573c-1.173-5.869-6.369-10.127-12.353-10.127h-18.533l21.031,185.077h29.163c3.866,0 7.489-1.715 9.941-4.705 2.452-2.991 3.424-6.881 2.665-10.672z"/>
    <path d="M44.519,66.073c-5.984,0-11.18,4.259-12.353,10.127L0.252,235.774c-0.759,3.791,0.213,7.681,2.664,10.671   c2.451,2.99,6.075,4.705,9.941,4.705h29.163L63.052,66.073H44.519z"/>
  </g>
</svg>
